# xmcd CD database file
#
# Track frame offsets:
#	150
#	20932
#	35532
#	60336
#	79619
#	94985
#	109170
#	134374
#	150549
#	164541
#	183786
#
# Disc length: 2666 seconds
#
# Revision: 0
# Processed by: cddbd v1.5.1PL0 Copyright (c) Steve Scherf et al.
# Submitted via: CDex 1.51
#
DISCID=890a680b
DTITLE=El Vagón - Caballo De Hierro
DYEAR=2002
DGENRE=Blues
TTITLE0=Mujer Al Fiado
TTITLE1=Ella Se Fue
TTITLE2=Miradas Heladas
TTITLE3=Dale MúSica A La Luna
TTITLE4=Por Las Buenas
TTITLE5=Circular
TTITLE6=Amor Extraño
TTITLE7=Duendes En El Campo
TTITLE8=El Bolichero
TTITLE9=Cabaldando La Muerte
TTITLE10=Cuestión De Piel
EXTD=YEAR: 2002
EXTT0=
EXTT1=
EXTT2=
EXTT3=
EXTT4=
EXTT5=
EXTT6=
EXTT7=
EXTT8=
EXTT9=
EXTT10=
PLAYORDER=
